<svg width="238" height="68" viewBox="0 0 238 68" fill="none" xmlns="http://www.w3.org/2000/svg">
<g filter="url(#filter0_d_1_18)">
<path d="M0 57.25C0 55.0409 1.79086 53.25 4 53.25H9.89474C12.1039 53.25 13.8947 55.0409 13.8947 57.25V63C13.8947 65.2091 12.1039 67 9.89474 67H4C1.79086 67 0 65.2091 0 63V57.25Z" fill="#F2906D"/>
</g>
<g filter="url(#filter1_d_1_18)">
<path d="M52 40C52 37.7909 53.7909 36 56 36H61.8947C64.1039 36 65.8947 37.7909 65.8947 40V45.75C65.8947 47.9591 64.1039 49.75 61.8947 49.75H56C53.7909 49.75 52 47.9591 52 45.75V40Z" fill="#F2906D"/>
</g>
<g filter="url(#filter2_d_1_18)">
<path d="M17 58C17 55.7909 18.7909 54 21 54H26.8947C29.1039 54 30.8947 55.7909 30.8947 58V63.75C30.8947 65.9591 29.1039 67.75 26.8947 67.75H21C18.7909 67.75 17 65.9591 17 63.75V58Z" fill="#F2906D"/>
</g>
<g filter="url(#filter3_d_1_18)">
<path d="M52.1053 57.25C52.1053 55.0409 53.8961 53.25 56.1053 53.25H62C64.2091 53.25 66 55.0409 66 57.25V63C66 65.2091 64.2091 67 62 67H56.1053C53.8961 67 52.1053 65.2091 52.1053 63V57.25Z" fill="#F2906D"/>
</g>
<g filter="url(#filter4_d_1_18)">
<path d="M34.7368 40.0625C34.7368 37.8534 36.5277 36.0625 38.7368 36.0625H44.6316C46.8407 36.0625 48.6316 37.8534 48.6316 40.0625V45.8125C48.6316 48.0216 46.8407 49.8125 44.6316 49.8125H38.7368C36.5277 49.8125 34.7368 48.0216 34.7368 45.8125V40.0625Z" fill="#F2906D"/>
</g>
<g filter="url(#filter5_d_1_18)">
<path d="M34.7368 57.25C34.7368 55.0409 36.5277 53.25 38.7368 53.25H44.6316C46.8407 53.25 48.6316 55.0409 48.6316 57.25V63C48.6316 65.2091 46.8407 67 44.6316 67H38.7368C36.5277 67 34.7368 65.2091 34.7368 63V57.25Z" fill="#F2906D"/>
</g>
<g filter="url(#filter6_d_1_18)">
<path d="M52.1053 5C52.1053 2.79086 53.8961 1 56.1053 1H62C64.2091 1 66 2.79086 66 5V10.75C66 12.9591 64.2091 14.75 62 14.75H56.1053C53.8961 14.75 52.1053 12.9591 52.1053 10.75V5Z" fill="#F2906D"/>
</g>
<g filter="url(#filter7_d_1_18)">
<path d="M52.1053 22.875C52.1053 20.6659 53.8961 18.875 56.1053 18.875H62C64.2091 18.875 66 20.6659 66 22.875V28.625C66 30.8341 64.2091 32.625 62 32.625H56.1053C53.8961 32.625 52.1053 30.8341 52.1053 28.625V22.875Z" fill="#F2906D"/>
</g>
<g filter="url(#filter8_d_1_18)">
<path d="M34.7368 22.875C34.7368 20.6659 36.5277 18.875 38.7368 18.875H44.6316C46.8407 18.875 48.6316 20.6659 48.6316 22.875V28.625C48.6316 30.8341 46.8407 32.625 44.6316 32.625H38.7368C36.5277 32.625 34.7368 30.8341 34.7368 28.625V22.875Z" fill="#F2906D"/>
</g>
<g filter="url(#filter9_d_1_18)">
<path d="M17.3684 40.0625C17.3684 37.8534 19.1593 36.0625 21.3684 36.0625H27.2632C29.4723 36.0625 31.2632 37.8534 31.2632 40.0625V45.8125C31.2632 48.0216 29.4723 49.8125 27.2632 49.8125H21.3684C19.1593 49.8125 17.3684 48.0216 17.3684 45.8125V40.0625Z" fill="#F2906D"/>
</g>
<g filter="url(#filter10_d_1_18)">
<path d="M86.992 33.512L85.008 39.912H97.616L95.632 33.512C94.864 31.1653 94.1387 28.84 93.456 26.536C92.7733 24.1893 92.0907 21.8 91.408 19.368H91.152C90.512 21.8 89.8507 24.1893 89.168 26.536C88.4853 28.84 87.76 31.1653 86.992 33.512ZM74.192 57L88.4 15.016H94.416L108.624 57H102.928L98.96 44.2H83.664L79.632 57H74.192ZM120.343 57L109.143 25.896H114.583L120.471 43.56C120.94 45.096 121.41 46.632 121.879 48.168C122.391 49.704 122.882 51.2187 123.351 52.712H123.607C124.076 51.2187 124.546 49.704 125.015 48.168C125.527 46.632 125.996 45.096 126.423 43.56L132.311 25.896H137.495L126.487 57H120.343ZM149.416 57.768C146.813 57.768 144.637 57 142.888 55.464C141.181 53.8853 140.328 51.7093 140.328 48.936C140.328 45.5227 141.843 42.92 144.872 41.128C147.944 39.2933 152.787 38.0133 159.4 37.288C159.4 35.9653 159.208 34.7067 158.824 33.512C158.483 32.3173 157.843 31.3573 156.904 30.632C156.008 29.864 154.707 29.48 153 29.48C151.208 29.48 149.523 29.8213 147.944 30.504C146.365 31.1867 144.957 31.9547 143.72 32.808L141.672 29.16C143.123 28.2213 144.893 27.3253 146.984 26.472C149.117 25.576 151.421 25.128 153.896 25.128C157.693 25.128 160.445 26.3013 162.152 28.648C163.859 30.952 164.712 34.0453 164.712 37.928V57H160.36L159.912 53.288H159.72C158.269 54.4827 156.669 55.528 154.92 56.424C153.213 57.32 151.379 57.768 149.416 57.768ZM150.952 53.544C152.445 53.544 153.853 53.1813 155.176 52.456C156.499 51.7307 157.907 50.7067 159.4 49.384V40.744C154.237 41.384 150.611 42.344 148.52 43.624C146.472 44.904 145.448 46.5467 145.448 48.552C145.448 50.3013 145.981 51.5813 147.048 52.392C148.115 53.16 149.416 53.544 150.952 53.544ZM180.066 57.768C178.103 57.768 176.674 57.1707 175.778 55.976C174.925 54.7387 174.498 52.9893 174.498 50.728V11.432H179.746V51.112C179.746 51.9227 179.895 52.52 180.194 52.904C180.493 53.2453 180.834 53.416 181.218 53.416C181.389 53.416 181.538 53.416 181.666 53.416C181.837 53.3733 182.071 53.3307 182.37 53.288L183.074 57.256C182.733 57.4267 182.327 57.5547 181.858 57.64C181.389 57.7253 180.791 57.768 180.066 57.768ZM190.811 57V25.896H196.059V57H190.811ZM193.499 19.496C192.475 19.496 191.621 19.1973 190.939 18.6C190.299 17.96 189.979 17.1067 189.979 16.04C189.979 15.016 190.299 14.184 190.939 13.544C191.621 12.904 192.475 12.584 193.499 12.584C194.523 12.584 195.355 12.904 195.995 13.544C196.677 14.184 197.019 15.016 197.019 16.04C197.019 17.1067 196.677 17.96 195.995 18.6C195.355 19.1973 194.523 19.496 193.499 19.496ZM219.169 57.768C216.395 57.768 213.878 57.128 211.617 55.848C209.355 54.5253 207.563 52.648 206.241 50.216C204.918 47.784 204.257 44.8827 204.257 41.512C204.257 38.0987 204.918 35.176 206.241 32.744C207.606 30.312 209.355 28.4347 211.489 27.112C213.622 25.7893 215.862 25.128 218.208 25.128C222.177 25.128 225.227 26.4507 227.361 29.096C229.537 31.7413 230.625 35.2827 230.625 39.72C230.625 40.2747 230.603 40.8293 230.561 41.384C230.561 41.896 230.518 42.344 230.433 42.728H209.441C209.654 46.0133 210.678 48.6373 212.513 50.6C214.39 52.5627 216.822 53.544 219.809 53.544C221.302 53.544 222.667 53.3307 223.905 52.904C225.185 52.4347 226.401 51.8373 227.553 51.112L229.409 54.568C228.086 55.4213 226.571 56.168 224.865 56.808C223.201 57.448 221.302 57.768 219.169 57.768ZM209.377 38.952H226.017C226.017 35.7947 225.334 33.4053 223.969 31.784C222.646 30.12 220.769 29.288 218.337 29.288C216.161 29.288 214.198 30.1413 212.449 31.848C210.742 33.512 209.718 35.88 209.377 38.952Z" fill="#3C3838"/>
</g>
<defs>
<filter id="filter0_d_1_18" x="0" y="53.25" width="13.8947" height="13.75" filterUnits="userSpaceOnUse" color-interpolation-filters="sRGB">
<feFlood flood-opacity="0" result="BackgroundImageFix"/>
<feColorMatrix in="SourceAlpha" type="matrix" values="0 0 0 0 0 0 0 0 0 0 0 0 0 0 0 0 0 0 127 0" result="hardAlpha"/>
<feOffset/>
<feComposite in2="hardAlpha" operator="out"/>
<feColorMatrix type="matrix" values="0 0 0 0 0 0 0 0 0 0 0 0 0 0 0 0 0 0 0.25 0"/>
<feBlend mode="normal" in2="BackgroundImageFix" result="effect1_dropShadow_1_18"/>
<feBlend mode="normal" in="SourceGraphic" in2="effect1_dropShadow_1_18" result="shape"/>
</filter>
<filter id="filter1_d_1_18" x="52" y="36" width="13.8947" height="13.75" filterUnits="userSpaceOnUse" color-interpolation-filters="sRGB">
<feFlood flood-opacity="0" result="BackgroundImageFix"/>
<feColorMatrix in="SourceAlpha" type="matrix" values="0 0 0 0 0 0 0 0 0 0 0 0 0 0 0 0 0 0 127 0" result="hardAlpha"/>
<feOffset/>
<feComposite in2="hardAlpha" operator="out"/>
<feColorMatrix type="matrix" values="0 0 0 0 0 0 0 0 0 0 0 0 0 0 0 0 0 0 0.25 0"/>
<feBlend mode="normal" in2="BackgroundImageFix" result="effect1_dropShadow_1_18"/>
<feBlend mode="normal" in="SourceGraphic" in2="effect1_dropShadow_1_18" result="shape"/>
</filter>
<filter id="filter2_d_1_18" x="17" y="54" width="13.8947" height="13.75" filterUnits="userSpaceOnUse" color-interpolation-filters="sRGB">
<feFlood flood-opacity="0" result="BackgroundImageFix"/>
<feColorMatrix in="SourceAlpha" type="matrix" values="0 0 0 0 0 0 0 0 0 0 0 0 0 0 0 0 0 0 127 0" result="hardAlpha"/>
<feOffset/>
<feComposite in2="hardAlpha" operator="out"/>
<feColorMatrix type="matrix" values="0 0 0 0 0 0 0 0 0 0 0 0 0 0 0 0 0 0 0.25 0"/>
<feBlend mode="normal" in2="BackgroundImageFix" result="effect1_dropShadow_1_18"/>
<feBlend mode="normal" in="SourceGraphic" in2="effect1_dropShadow_1_18" result="shape"/>
</filter>
<filter id="filter3_d_1_18" x="52.1053" y="53.25" width="13.8947" height="13.75" filterUnits="userSpaceOnUse" color-interpolation-filters="sRGB">
<feFlood flood-opacity="0" result="BackgroundImageFix"/>
<feColorMatrix in="SourceAlpha" type="matrix" values="0 0 0 0 0 0 0 0 0 0 0 0 0 0 0 0 0 0 127 0" result="hardAlpha"/>
<feOffset/>
<feComposite in2="hardAlpha" operator="out"/>
<feColorMatrix type="matrix" values="0 0 0 0 0 0 0 0 0 0 0 0 0 0 0 0 0 0 0.25 0"/>
<feBlend mode="normal" in2="BackgroundImageFix" result="effect1_dropShadow_1_18"/>
<feBlend mode="normal" in="SourceGraphic" in2="effect1_dropShadow_1_18" result="shape"/>
</filter>
<filter id="filter4_d_1_18" x="34.7368" y="36.0625" width="13.8947" height="13.75" filterUnits="userSpaceOnUse" color-interpolation-filters="sRGB">
<feFlood flood-opacity="0" result="BackgroundImageFix"/>
<feColorMatrix in="SourceAlpha" type="matrix" values="0 0 0 0 0 0 0 0 0 0 0 0 0 0 0 0 0 0 127 0" result="hardAlpha"/>
<feOffset/>
<feComposite in2="hardAlpha" operator="out"/>
<feColorMatrix type="matrix" values="0 0 0 0 0 0 0 0 0 0 0 0 0 0 0 0 0 0 0.25 0"/>
<feBlend mode="normal" in2="BackgroundImageFix" result="effect1_dropShadow_1_18"/>
<feBlend mode="normal" in="SourceGraphic" in2="effect1_dropShadow_1_18" result="shape"/>
</filter>
<filter id="filter5_d_1_18" x="34.7368" y="53.25" width="13.8947" height="13.75" filterUnits="userSpaceOnUse" color-interpolation-filters="sRGB">
<feFlood flood-opacity="0" result="BackgroundImageFix"/>
<feColorMatrix in="SourceAlpha" type="matrix" values="0 0 0 0 0 0 0 0 0 0 0 0 0 0 0 0 0 0 127 0" result="hardAlpha"/>
<feOffset/>
<feComposite in2="hardAlpha" operator="out"/>
<feColorMatrix type="matrix" values="0 0 0 0 0 0 0 0 0 0 0 0 0 0 0 0 0 0 0.25 0"/>
<feBlend mode="normal" in2="BackgroundImageFix" result="effect1_dropShadow_1_18"/>
<feBlend mode="normal" in="SourceGraphic" in2="effect1_dropShadow_1_18" result="shape"/>
</filter>
<filter id="filter6_d_1_18" x="52.1053" y="1" width="13.8947" height="13.75" filterUnits="userSpaceOnUse" color-interpolation-filters="sRGB">
<feFlood flood-opacity="0" result="BackgroundImageFix"/>
<feColorMatrix in="SourceAlpha" type="matrix" values="0 0 0 0 0 0 0 0 0 0 0 0 0 0 0 0 0 0 127 0" result="hardAlpha"/>
<feOffset/>
<feComposite in2="hardAlpha" operator="out"/>
<feColorMatrix type="matrix" values="0 0 0 0 0 0 0 0 0 0 0 0 0 0 0 0 0 0 0.25 0"/>
<feBlend mode="normal" in2="BackgroundImageFix" result="effect1_dropShadow_1_18"/>
<feBlend mode="normal" in="SourceGraphic" in2="effect1_dropShadow_1_18" result="shape"/>
</filter>
<filter id="filter7_d_1_18" x="52.1053" y="18.875" width="13.8947" height="13.75" filterUnits="userSpaceOnUse" color-interpolation-filters="sRGB">
<feFlood flood-opacity="0" result="BackgroundImageFix"/>
<feColorMatrix in="SourceAlpha" type="matrix" values="0 0 0 0 0 0 0 0 0 0 0 0 0 0 0 0 0 0 127 0" result="hardAlpha"/>
<feOffset/>
<feComposite in2="hardAlpha" operator="out"/>
<feColorMatrix type="matrix" values="0 0 0 0 0 0 0 0 0 0 0 0 0 0 0 0 0 0 0.25 0"/>
<feBlend mode="normal" in2="BackgroundImageFix" result="effect1_dropShadow_1_18"/>
<feBlend mode="normal" in="SourceGraphic" in2="effect1_dropShadow_1_18" result="shape"/>
</filter>
<filter id="filter8_d_1_18" x="34.7368" y="18.875" width="13.8947" height="13.75" filterUnits="userSpaceOnUse" color-interpolation-filters="sRGB">
<feFlood flood-opacity="0" result="BackgroundImageFix"/>
<feColorMatrix in="SourceAlpha" type="matrix" values="0 0 0 0 0 0 0 0 0 0 0 0 0 0 0 0 0 0 127 0" result="hardAlpha"/>
<feOffset/>
<feComposite in2="hardAlpha" operator="out"/>
<feColorMatrix type="matrix" values="0 0 0 0 0 0 0 0 0 0 0 0 0 0 0 0 0 0 0.25 0"/>
<feBlend mode="normal" in2="BackgroundImageFix" result="effect1_dropShadow_1_18"/>
<feBlend mode="normal" in="SourceGraphic" in2="effect1_dropShadow_1_18" result="shape"/>
</filter>
<filter id="filter9_d_1_18" x="17.3684" y="36.0625" width="13.8947" height="13.75" filterUnits="userSpaceOnUse" color-interpolation-filters="sRGB">
<feFlood flood-opacity="0" result="BackgroundImageFix"/>
<feColorMatrix in="SourceAlpha" type="matrix" values="0 0 0 0 0 0 0 0 0 0 0 0 0 0 0 0 0 0 127 0" result="hardAlpha"/>
<feOffset/>
<feComposite in2="hardAlpha" operator="out"/>
<feColorMatrix type="matrix" values="0 0 0 0 0 0 0 0 0 0 0 0 0 0 0 0 0 0 0.25 0"/>
<feBlend mode="normal" in2="BackgroundImageFix" result="effect1_dropShadow_1_18"/>
<feBlend mode="normal" in="SourceGraphic" in2="effect1_dropShadow_1_18" result="shape"/>
</filter>
<filter id="filter10_d_1_18" x="74.192" y="11.432" width="156.432" height="46.336" filterUnits="userSpaceOnUse" color-interpolation-filters="sRGB">
<feFlood flood-opacity="0" result="BackgroundImageFix"/>
<feColorMatrix in="SourceAlpha" type="matrix" values="0 0 0 0 0 0 0 0 0 0 0 0 0 0 0 0 0 0 127 0" result="hardAlpha"/>
<feOffset/>
<feComposite in2="hardAlpha" operator="out"/>
<feColorMatrix type="matrix" values="0 0 0 0 0 0 0 0 0 0 0 0 0 0 0 0 0 0 0.25 0"/>
<feBlend mode="normal" in2="BackgroundImageFix" result="effect1_dropShadow_1_18"/>
<feBlend mode="normal" in="SourceGraphic" in2="effect1_dropShadow_1_18" result="shape"/>
</filter>
</defs>
</svg>
